<?xml version="1.0" encoding="UTF-8"?>
<svg id="Capa_1" xmlns="http://www.w3.org/2000/svg" viewBox="0 0 389.78 361">
  <defs>
    <style>
      .cls-1 {
        fill: #1a181c;
      }
    </style>
  </defs>
  <path class="cls-1" d="M344.92,101.18c-30.44-20.63-72.17-26.04-105.52-9.25-10.14,4.96-19.26,11.74-27.2,19.75-4.78,4.83-13.07.94-12.41-5.82,1.1-11.36,4.65-22.42,11.34-32.48,10.87-16.62,27.63-29.29,46.49-35.49,12.59-4.15,26.08-5.41,39.26-3.76,4.82.65,9.58,1.69,14.24,3.07.77.2,1.64.09,2.36-.39,1.33-.89,1.68-2.69.79-4.01,0,0-1.21-1.8-1.21-1.8C288.69-3.81,237.25-7.48,201.21,10.91c-33.08,16.04-58.64,49.48-60.77,86.76-.78,11.26.54,22.55,3.51,33.42,1.81,6.62-5.79,11.78-11.36,7.77-12.66-9.12-22.34-21.86-27.51-38.71-3.28-9.97-4.53-20.66-4.12-31.15,1.01-22.87,11.17-45.18,27.94-60.81,1.87-1.82.39-5.13-2.24-4.93,0,0-2.16.15-2.16.15-34.58,2.87-61.21,33.05-69.78,65.6-11.7,42.36,3.81,92.66,41.2,117.22,9.35,6.3,19.78,10.8,30.67,13.66,6.6,1.74,7.42,10.84,1.21,13.67-10.39,4.73-21.75,7.19-33.8,6.42-19.82-1.1-39.18-9.28-53.98-22.51-9.89-8.83-17.73-19.88-22.89-32.12-1.85-4.5-3.32-9.14-4.46-13.87-.21-.77-.74-1.47-1.52-1.85-1.43-.7-3.17-.11-3.87,1.32,0,0-.95,1.95-.95,1.95-17.96,38.52,4.58,84.9,38.52,106.91,30.44,20.63,72.17,26.04,105.52,9.25,10.14-4.96,19.26-11.74,27.2-19.75,4.78-4.83,13.07-.95,12.41,5.82-1.1,11.36-4.65,22.42-11.34,32.48-10.87,16.62-27.63,29.29-46.49,35.49-12.59,4.15-26.08,5.41-39.26,3.76-4.82-.65-9.58-1.69-14.24-3.07-.77-.2-1.64-.09-2.36.39-1.33.89-1.68,2.69-.79,4.01,0,0,1.21,1.8,1.21,1.8,24.38,34.81,75.82,38.48,111.85,20.1,33.08-16.04,58.64-49.48,60.77-86.76.78-11.28-.54-22.59-3.52-33.48-1.79-6.56,5.72-11.78,11.25-7.84,5.71,4.07,10.87,8.92,15.23,14.63,11.21,14.66,16.7,33.41,16.58,51.8,0,14.35-3.72,28.63-10.38,41.33-4.59,8.54-10.53,16.39-17.62,23.02-1.87,1.82-.39,5.13,2.24,4.93l2.16-.15c13.33-.91,25.49-6.42,36.25-14.38,47.04-35.73,48.94-112.06,9.15-154.16-12.87-13.99-29.53-23.15-47.5-27.92-6.62-1.75-7.52-10.81-1.3-13.66,10.42-4.76,21.81-7.24,33.9-6.47,19.82,1.1,39.18,9.28,53.98,22.51,9.89,8.83,17.73,19.88,22.89,32.12,1.85,4.5,3.32,9.14,4.46,13.87.21.77.74,1.47,1.52,1.85,1.43.7,3.17.11,3.87-1.32,0,0,.95-1.95.95-1.95,17.96-38.52-4.58-84.9-38.52-106.91Z"/>
  <g>
    <path class="cls-1" d="M383.9,73.8c-5.45,5.45-18.61-6.34-25.75-6.34s-20.3,11.79-25.75,6.34c-5.45-5.45,6.34-18.61,6.34-25.75s-11.79-20.3-6.34-25.75c5.45-5.45,18.61,6.34,25.75,6.34,7.14,0,20.3-11.79,25.75-6.34,5.45,5.45-6.34,18.61-6.34,25.75s11.79,20.3,6.34,25.75Z"/>
    <path class="cls-1" d="M5.88,287.2c5.45-5.45,18.61,6.34,25.75,6.34,7.14,0,20.3-11.79,25.75-6.34,5.45,5.45-6.34,18.61-6.34,25.75,0,7.14,11.79,20.3,6.34,25.75-5.45,5.45-18.61-6.34-25.75-6.34-7.14,0-20.3,11.79-25.75,6.34-5.45-5.45,6.34-18.61,6.34-25.75,0-7.14-11.79-20.3-6.34-25.75Z"/>
  </g>
</svg>